PathFileType	4	(X/Y/Z)	OpenSim_Sub07_EMGStiffKnee_Accel.trc
DataRate	CameraRate	NumFrames	NumMarkers	Units	OrigDataRate	OrigDataStartFrame	OrigNumFrames
100	100	13	8	m	100	4618	7388
Frame#	Time	torso_imu_offset_imu	pelvis_imu_offset_imu	tibia_r_imu_offset_imu	femur_r_imu_offset_imu	tibia_l_imu_offset_imu	femur_l_imu_offset_imu	toes_r_imu_offset_imu	toes_l_imu_offset_imu
				X1	Y1	Z1	X2	Y2	Z2	X3	Y3	Z3	X4	Y4	Z4	X5	Y5	Z5	X6	Y6	Z6	X7	Y7	Z7	X8		Y8	Z8	

4618	46.17000000	-8.47041323	1.12914670	6.29569495	8.93860990	1.91925406	2.58039911	10.18079530	1.34103233	-0.08792100	9.27923853	0.31883591	-0.51890257	9.24918966	-4.22707296	0.01821231	8.84108912	1.71506229	0.58422304	5.55102225	1.22674284	8.34716471	9.30940135	1.18279677	10.58579328
4619	46.18000000	-8.45267105	1.13695876	6.22962262	8.80045972	2.07302404	2.62970941	10.22452453	-0.11852714	0.22874180	9.06965310	0.39880941	-0.60387795	9.08812771	-3.63616411	0.02045283	8.74546342	1.93981593	0.92383170	5.49144678	1.25407809	8.34266811	9.89124526	1.45933049	10.40071244
4620	46.19000000	-8.52409238	1.12403508	6.12824062	8.67007698	2.25079433	2.58487003	10.12670911	-1.26436034	0.59352360	9.05431721	0.40410111	-0.63322195	8.94100909	-3.16638997	0.41457704	8.62280858	2.05403263	1.27078251	4.89932155	1.21655477	8.69735592	10.14258869	1.77006709	9.87001347
4621	46.20000000	-8.63577866	1.15338128	6.03032209	8.66056176	2.36425938	2.46017587	10.21996337	-1.69746559	0.75330017	9.21922086	0.38291070	-0.62732627	8.80426686	-2.84026189	0.89383704	8.50934680	2.12904629	1.44342643	4.86639910	1.09487126	8.73565881	9.73492163	1.82422785	9.19047224
4622	46.21000000	-8.77403389	1.20257067	6.02233403	8.75492938	2.50511895	2.27375973	10.33371934	-1.66242811	0.78559392	9.19163961	0.28631240	-0.59686990	8.76106385	-2.53438859	1.02833378	8.43096146	2.19905086	1.42820658	4.78996181	1.03313593	8.79718401	9.53554021	1.92526230	8.38947727
4623	46.22000000	-8.89671298	1.27011286	5.94656773	8.87581138	2.59156288	2.07430081	10.25756095	-1.55482523	0.69836544	9.13804840	0.11625303	-0.39734119	8.68168116	-2.21499580	0.92128793	8.33235762	2.42243816	1.31878443	4.99009123	1.03172438	8.64315230	9.51544712	2.31779553	7.66763148
4624	46.23000000	-9.01164536	1.31075408	5.89694880	8.97358134	2.72073914	2.02088524	9.98791006	-1.30658849	0.49340697	9.45955802	-0.24364265	-0.09040210	8.42395428	-1.83936712	0.83825274	8.25711236	2.64346009	1.20555980	5.24832707	0.69506545	8.48494129	9.62133626	1.92671483	6.95859559
4625	46.24000000	-9.14410799	1.31947449	5.85790937	9.09381541	2.76748235	1.96619063	9.87370366	-0.77651447	0.04014430	9.70640085	-0.68120422	-0.07373233	8.62589680	-1.44423695	0.98932628	8.01254009	2.92793934	1.03446833	5.04550195	0.60372612	8.67219779	9.92233922	1.22912030	5.85884445
4626	46.25000000	-9.20873084	1.39032747	5.86778754	9.21661721	2.63140431	1.85544597	9.99174009	-0.09472067	-0.02032101	9.75073288	-1.23531921	-0.20947706	9.18257582	-1.04677670	1.07565951	7.64555224	3.43599234	0.65776206	5.12285474	0.74414494	8.61658992	10.99533999	1.84604317	5.21142687
4627	46.26000000	-9.25040703	1.40874417	5.90999850	9.28032183	2.68430583	1.77885089	9.95580389	0.40158717	0.22299412	9.68411705	-1.69865828	-0.25088876	9.60298016	-0.51578161	1.09921028	7.51774413	4.00325675	0.33947395	5.40741436	0.73560165	8.33914043	12.87107626	2.58172755	4.94934121
4628	46.27000000	-9.30269435	1.42985826	5.93021689	9.17231865	2.50333800	1.79288495	9.77813581	0.39024272	0.58409492	9.39088988	-1.96714595	-0.31941449	9.84371335	-0.01159600	1.28375448	7.83315297	4.27626799	0.34841070	5.30299289	0.93551342	8.51716209	14.18804787	1.95762197	3.35240428
4629	46.28000000	-9.35199240	1.41010036	5.99522704	9.08913444	2.35048368	1.76990712	9.83014158	0.22275291	1.05628078	9.10782896	-1.84089577	-0.36961628	9.92197166	0.14390896	1.47410030	8.31929311	4.09251944	0.51930297	5.04913540	1.14415252	8.68104539	13.85214862	0.81464195	1.35071653
4630	46.29000000	-9.36831603	1.40794372	5.99828455	9.01468412	2.39447135	1.62937007	9.96675784	0.30159080	1.14143899	9.01377417	-1.34306032	-0.18214684	9.90071398	-0.05150721	1.34617939	8.68623732	3.95611506	0.62619872	4.90041187	1.24561586	8.72502581	13.22285304	-0.33494442	0.00141803
